{"title":"UFC.184.Main.Event.Ronda.Rousey.vs.Cat.Zingano.WEBRip.P2P4FREE","uid":11728582,"size":246540956,"categoryP":"video","categoryS":"tv_shows","magnet":"?xt=urn:btih:41504f53db15a0baff62de583772058795a3e0e7&amp;dn=UFC.184.Main.Event.Ronda.Rousey.vs.Cat.Zingano.WEBRip.P2P4FREE&amp;tr=udp%3A%2F%2Ftracker.openbittorrent.com%3A80&amp;tr=udp%3A%2F%2Fopen.demonii.com%3A1337&amp;tr=udp%3A%2F%2Ftracker.coppersurfer.tk%3A6969&amp;tr=udp%3A%2F%2Fexodus.desync.com%3A6969","seeders":16,"leechers":1,"uploader":"P2P4FREE","files":1,"time":1425190121,"description":"General\n---------------------------------------------\nComplete name                            : UFC.184.Main.Event.Ronda.Rousey.vs.Cat.Zingano.WEBRip.P2P4FREE.mkv\nFormat                                   : Matroska\nFormat version                           : Version 2\nFile size                                : 235 MiB\nDuration                                 : 8mn 44s\nOverall bit rate mode                    : Variable\nOverall bit rate                         : 3 757 Kbps\nWriting application                      : Lavf54.20.4\nWriting library                          : Lavf54.20.4\n\nVideo\nID                                       : 1\nFormat                                   : AVC\nFormat/Info                              : Advanced Video Codec\nFormat profile                           : &lt;a class=&quot;__cf_email__&quot; href=&quot;/cdn-cgi/l/email-protection&quot; data-cfemail=&quot;ca82a3ada28a86f9e4f8&quot;&gt;[email&amp;#160;protected]&lt;/a&gt;&lt;script cf-hash='f9e31' type=&quot;text/javascript&quot;&gt;\n/* &lt;![CDATA[ */!function(){try{var t=&quot;currentScript&quot;in document?document.currentScript:function(){for(var t=document.getElementsByTagName(&quot;script&quot;),e=t.length;e--;)if(t[e].getAttribute(&quot;cf-hash&quot;))return t[e]}();if(t&amp;&amp;t.previousSibling){var e,r,n,i,c=t.previousSibling,a=c.getAttribute(&quot;data-cfemail&quot;);if(a){for(e=&quot;&quot;,r=parseInt(a.substr(0,2),16),n=2;a.length-n;n+=2)i=parseInt(a.substr(n,2),16)^r,e+=String.fromCharCode(i);e=document.createTextNode(e),c.parentNode.replaceChild(e,c)}}}catch(u){}}();/* ]]&gt; */&lt;/script&gt;\nFormat settings, CABAC                   : Yes\nFormat settings, ReFrames                : 4 frames\nCodec ID                                 : V_MPEG4/ISO/AVC\nDuration                                 : 8mn 44s\nBit rate                                 : 3 551 Kbps\nWidth                                    : 1 366 pixels\nHeight                                   : 768 pixels\nDisplay aspect ratio                     : 16:9\nFrame rate mode                          : Constant\nFrame rate                               : 30.000 fps\nColor space                              : YUV\nChroma subsampling                       : 4:2:0\nBit depth                                : 8 bits\nScan type                                : Progressive\nBits/(Pixel*Frame)                       : 0.113\nStream size                              : 222 MiB (95%)\nWriting library                          : x264 core 142 r2491 24e4fed\n\nAudio\n---------------------------------------------\nID                                       : 2\nFormat                                   : Vorbis\nFormat settings, Floor                   : 1\nCodec ID                                 : A_VORBIS\nDuration                                 : 8mn 44s\nBit rate mode                            : Variable\nBit rate                                 : 131 Kbps\nChannel(s)                               : 2 channels\nSampling rate                            : 44.1 KHz\nCompression mode                         : Lossy\nDelay relative to video                  : 1ms\nStream size                              : 8.20 MiB (3%)\nWriting library                          : aoTuV 20110424 (UTC 2011-04-24)\nDefault                                  : Yes\nForced                                   : No\nWriting application                      : Lavc54.35.0","torrent":{"xt":"urn:btih:41504f53db15a0baff62de583772058795a3e0e7","amp;dn":"UFC.184.Main.Event.Ronda.Rousey.vs.Cat.Zingano.WEBRip.P2P4FREE","amp;tr":["udp%3A%2F%2Ftracker.openbittorrent.com%3A80","udp%3A%2F%2Fopen.demonii.com%3A1337","udp%3A%2F%2Ftracker.coppersurfer.tk%3A6969","udp%3A%2F%2Fexodus.desync.com%3A6969"],"infoHash":"41504f53db15a0baff62de583772058795a3e0e7","infoHashBuffer":{"type":"Buffer","data":[65,80,79,83,219,21,160,186,255,98,222,88,55,114,5,135,149,163,224,231]},"announce":[],"urlList":[]}}